<svg width="1200" height="320" viewBox="0 0 1200 320" fill="none" xmlns="http://www.w3.org/2000/svg" role="img" aria-labelledby="title desc">
  <title id="title">vostory blue tech logo</title>
  <desc id="desc">Blue and white technology-themed logo for Vostory.</desc>
  <defs>
    <linearGradient id="panel" x1="36" y1="28" x2="236" y2="228" gradientUnits="userSpaceOnUse">
      <stop stop-color="#0F6FFF"/>
      <stop offset="0.58" stop-color="#0A56D6"/>
      <stop offset="1" stop-color="#083B9A"/>
    </linearGradient>
    <linearGradient id="shine" x1="82" y1="76" x2="190" y2="184" gradientUnits="userSpaceOnUse">
      <stop stop-color="#BFE2FF"/>
      <stop offset="1" stop-color="#FFFFFF"/>
    </linearGradient>
    <linearGradient id="underline" x1="273" y1="254" x2="441" y2="254" gradientUnits="userSpaceOnUse">
      <stop stop-color="#37B7FF"/>
      <stop offset="1" stop-color="#0F6FFF"/>
    </linearGradient>
    <filter id="soft" x="0" y="0" width="280" height="280" filterUnits="userSpaceOnUse" color-interpolation-filters="sRGB">
      <feFlood flood-opacity="0" result="BackgroundImageFix"/>
      <feColorMatrix in="SourceAlpha" type="matrix" values="0 0 0 0 0 0 0 0 0 0 0 0 0 0 0 0 0 0 127 0" result="hardAlpha"/>
      <feOffset dy="18"/>
      <feGaussianBlur stdDeviation="18"/>
      <feColorMatrix type="matrix" values="0 0 0 0 0.0588235 0 0 0 0 0.435294 0 0 0 0 1 0 0 0 0.16 0"/>
      <feBlend mode="normal" in2="BackgroundImageFix" result="effect1_dropShadow_1_1"/>
      <feBlend mode="normal" in="SourceGraphic" in2="effect1_dropShadow_1_1" result="shape"/>
    </filter>
  </defs>

  <rect width="1200" height="320" rx="42" fill="#F5FAFF"/>

  <g filter="url(#soft)">
    <rect x="36" y="28" width="192" height="192" rx="52" fill="url(#panel)"/>
    <path d="M83 145C95.6667 122.333 111 110.5 129 110.5C149.667 110.5 158.333 138.5 177 138.5C190 138.5 200.667 129 209 110" stroke="url(#shine)" stroke-width="16" stroke-linecap="round"/>
    <path d="M85 103L119 171C123.333 179.667 129.667 184 138 184C146.333 184 152.333 179.667 156 171L190 103" stroke="white" stroke-width="18" stroke-linecap="round" stroke-linejoin="round"/>
    <path d="M103 84H164C182.778 84 198 99.2223 198 118V118" stroke="#D8EEFF" stroke-width="10" stroke-linecap="round"/>
    <circle cx="180" cy="83" r="8" fill="#D8EEFF"/>
  </g>

  <g opacity="0.98">
    <path d="M274 89H305L343 183L381 89H412L359 227H327L274 89Z" fill="#0B1733"/>
    <path d="M483 89C525.8 89 556 118.8 556 158C556 197.2 525.8 227 483 227C440.2 227 410 197.2 410 158C410 118.8 440.2 89 483 89ZM483 116C456.9 116 438 134.6 438 158C438 181.4 456.9 200 483 200C509.1 200 528 181.4 528 158C528 134.6 509.1 116 483 116Z" fill="#0B1733"/>
    <path d="M583 89H611V104C622.467 93.6667 636.467 88.5 653 88.5C686.733 88.5 709 110 709 143V227H681V149.5C681 127.833 668.833 117 644.5 117C629.5 117 618.333 121.833 611 131.5V227H583V89Z" fill="#0B1733"/>
    <path d="M792 89C819.333 89 842.6 98.7333 861.8 118.2L843.8 136.2C829.267 122.733 812.933 116 794.8 116C765.2 116 744 133.733 744 158C744 182.267 765.2 200 794.8 200C813.2 200 829.6 193.133 844 179.4L862.3 197.4C842.567 217.267 819 227.2 791.6 227.2C746.267 227.2 716 198.067 716 158C716 117.933 746.267 89 792 89Z" fill="#0B1733"/>
    <path d="M878 89H993V115H950V227H922V115H878V89Z" fill="#0B1733"/>
    <path d="M1012 89H1043L1086 153.5L1128 89H1159L1100 181V227H1072V181L1012 89Z" fill="#0B1733"/>
  </g>

  <rect x="273" y="248" width="168" height="12" rx="6" fill="url(#underline)"/>
  <text x="459" y="257" fill="#527098" font-family="'Segoe UI', Arial, sans-serif" font-size="24" letter-spacing="3">AUDIO STORY CREATION PLATFORM</text>
</svg>
