<svg width="512" height="512" viewBox="0 0 512 512" fill="none" xmlns="http://www.w3.org/2000/svg" role="img" aria-labelledby="title desc">
  <title id="title">vostory blue tech mark</title>
  <desc id="desc">Blue and white technology-themed icon for Vostory.</desc>
  <defs>
    <linearGradient id="bg" x1="82" y1="74" x2="430" y2="434" gradientUnits="userSpaceOnUse">
      <stop stop-color="#0F6FFF"/>
      <stop offset="0.6" stop-color="#0A56D6"/>
      <stop offset="1" stop-color="#083B9A"/>
    </linearGradient>
    <linearGradient id="wave" x1="160" y1="162" x2="355" y2="350" gradientUnits="userSpaceOnUse">
      <stop stop-color="#BFE2FF"/>
      <stop offset="1" stop-color="#FFFFFF"/>
    </linearGradient>
  </defs>

  <rect x="64" y="64" width="384" height="384" rx="110" fill="url(#bg)"/>
  <path d="M161 267C182.333 227.667 207.667 208 237 208C272 208 286.667 255.167 318.333 255.167C340.944 255.167 359 238.889 372 207" stroke="url(#wave)" stroke-width="26" stroke-linecap="round"/>
  <path d="M162 195L219 309C226.333 323.667 236.944 331 250.833 331C264.722 331 274.722 323.667 280.833 309L338 195" stroke="white" stroke-width="30" stroke-linecap="round" stroke-linejoin="round"/>
  <path d="M183 165H287C321.242 165 349 192.758 349 227V227" stroke="#D8EEFF" stroke-width="18" stroke-linecap="round"/>
  <circle cx="326" cy="165" r="14" fill="#D8EEFF"/>
</svg>
